<?xml version="1.0" encoding="utf-8"?>
<!-- Generator: Adobe Illustrator 18.1.1, SVG Export Plug-In . SVG Version: 6.00 Build 0)  -->
<svg version="1.1" id="Layer_1" xmlns="http://www.w3.org/2000/svg" xmlns:xlink="http://www.w3.org/1999/xlink" x="0px" y="0px"
	 viewBox="0 0 270 345.9" enable-background="new 0 0 270 345.9" xml:space="preserve">
<g>
	<path fill="#16AF12" d="M270,135c0,59.3-38.2,109.6-91.4,127.8l-23.9,69.6c-6.3,18.3-32.2,17.9-38-0.5l-21.3-67.8
		C40.2,247.2,0,195.8,0,135C0,60.4,60.4,0,135,0S270,60.4,270,135z"/>
	<g>
		<path fill="#FFFFFF" d="M111.7,184.4c-2,0-4-0.8-5.5-2.3l-38.8-38.8c-3-3-3-7.9,0-11c3-3,7.9-3,11,0l33.3,33.3l79.8-79.8
			c3-3,7.9-3,11,0c3,3,3,7.9,0,11l-85.3,85.3C115.7,183.7,113.7,184.4,111.7,184.4z"/>
	</g>
</g>
</svg>
