<?xml version="1.0" encoding="utf-8"?>
<!-- Generator: Adobe Illustrator 18.1.1, SVG Export Plug-In . SVG Version: 6.00 Build 0)  -->
<svg version="1.1" id="Layer_1" xmlns="http://www.w3.org/2000/svg" xmlns:xlink="http://www.w3.org/1999/xlink" x="0px" y="0px"
	 viewBox="0 0 270 345.9" enable-background="new 0 0 270 345.9" xml:space="preserve">
<g>
	<path fill="#231F20" d="M270,135c0,59.3-38.2,109.6-91.4,127.8l-23.9,69.6c-6.3,18.3-32.2,17.9-38-0.5l-21.3-67.8
		C40.2,247.2,0,195.8,0,135C0,60.4,60.4,0,135,0S270,60.4,270,135z"/>
	<g>
		<g>
			<path fill="#FFFFFF" d="M135,210.2c-40.3,0-73.1-32.8-73.1-73.1S94.7,64,135,64s73.1,32.8,73.1,73.1S175.3,210.2,135,210.2z
				 M135,77.3c-33,0-59.8,26.8-59.8,59.8s26.8,59.8,59.8,59.8s59.8-26.8,59.8-59.8S168,77.3,135,77.3z"/>
		</g>
		<g>
			<path fill="#FFFFFF" d="M115.1,163.7c-1.7,0-3.4-0.6-4.7-1.9c-2.6-2.6-2.6-6.8,0-9.4l39.9-39.9c2.6-2.6,6.8-2.6,9.4,0
				c2.6,2.6,2.6,6.8,0,9.4l-39.9,39.9C118.5,163,116.8,163.7,115.1,163.7z"/>
		</g>
		<g>
			<path fill="#FFFFFF" d="M154.9,163.7c-1.7,0-3.4-0.6-4.7-1.9l-39.9-39.9c-2.6-2.6-2.6-6.8,0-9.4c2.6-2.6,6.8-2.6,9.4,0l39.9,39.9
				c2.6,2.6,2.6,6.8,0,9.4C158.3,163,156.6,163.7,154.9,163.7z"/>
		</g>
	</g>
</g>
</svg>
