<?xml version="1.0" encoding="utf-8"?>
<!-- Generator: Adobe Illustrator 18.1.1, SVG Export Plug-In . SVG Version: 6.00 Build 0)  -->
<svg version="1.1" id="Layer_1" xmlns="http://www.w3.org/2000/svg" xmlns:xlink="http://www.w3.org/1999/xlink" x="0px" y="0px"
	 viewBox="0 0 270 345.9" enable-background="new 0 0 270 345.9" xml:space="preserve">
<g>
	<path fill="#E59E00" d="M270,135c0,59.3-38.2,109.6-91.4,127.8l-23.9,69.6c-6.3,18.3-32.2,17.9-38-0.5l-21.3-67.8
		C40.2,247.2,0,195.8,0,135C0,60.4,60.4,0,135,0S270,60.4,270,135z"/>
	<g>
		<g>
			<path fill="#FFFFFF" d="M134.9,204.4c-17.9,0-34.9-6.7-48-19c-13.7-12.8-21.6-30.3-22.3-49C64,117.6,70.7,99.7,83.6,86
				s30.3-21.6,49-22.3c18.8-0.6,36.7,6.1,50.4,18.9c13.7,12.8,21.6,30.3,22.3,49c0.1,3.7,0,7.4-0.5,11c-0.4,3.5-3.6,6-7.1,5.6
				c-3.5-0.4-6-3.6-5.6-7.1c0.4-3,0.5-6,0.4-9c-1.1-31.7-27.7-56.6-59.5-55.6c-15.4,0.5-29.6,7-40.1,18.2s-16,25.9-15.5,41.3
				c0.5,15.4,7,29.6,18.2,40.1c11.2,10.5,25.8,15.9,41.3,15.5c3.5-0.2,6.5,2.6,6.6,6.2c0.1,3.5-2.6,6.5-6.2,6.6
				C136.6,204.4,135.7,204.4,134.9,204.4z"/>
		</g>
		<g>
			<path fill="#FFFFFF" d="M147.8,146.8c-1,0-1.9-0.2-2.9-0.7l-12.8-6.4c-2.2-1.1-3.5-3.3-3.5-5.7V95.6c0-3.5,2.9-6.4,6.4-6.4
				c3.5,0,6.4,2.9,6.4,6.4v34.4l9.3,4.6c3.2,1.6,4.4,5.4,2.9,8.6C152.4,145.5,150.1,146.8,147.8,146.8z"/>
		</g>
		<g>
			<path fill="#FFFFFF" d="M173.4,204.4c-1.6,0-3.3-0.6-4.5-1.9l-25.6-25.6c-2.5-2.5-2.5-6.5,0-9c2.5-2.5,6.5-2.5,9,0l21.1,21.1
				l21.1-21.1c2.5-2.5,6.5-2.5,9,0c2.5,2.5,2.5,6.5,0,9l-25.6,25.6C176.7,203.8,175,204.4,173.4,204.4z"/>
		</g>
		<g>
			<path fill="#FFFFFF" d="M173.4,204.4c-3.5,0-6.4-2.9-6.4-6.4v-51.2c0-3.5,2.9-6.4,6.4-6.4s6.4,2.9,6.4,6.4V198
				C179.8,201.6,176.9,204.4,173.4,204.4z"/>
		</g>
	</g>
</g>
</svg>
