<?xml version="1.0" encoding="utf-8"?>
<!-- Generator: Adobe Illustrator 18.1.1, SVG Export Plug-In . SVG Version: 6.00 Build 0)  -->
<svg version="1.1" id="Layer_1" xmlns="http://www.w3.org/2000/svg" xmlns:xlink="http://www.w3.org/1999/xlink" x="0px" y="0px"
	 viewBox="0 0 270 345.9" enable-background="new 0 0 270 345.9" xml:space="preserve">
<path fill="#2860A3" d="M270,135c0,59.3-38.2,109.6-91.4,127.8l-23.9,69.6c-6.3,18.3-32.2,17.9-38-0.5l-21.3-67.8
	C40.2,247.2,0,195.8,0,135C0,60.4,60.4,0,135,0S270,60.4,270,135z"/>
<g>
	<path fill="#FFFFFF" d="M79.6,206.6c-5.7,0-11-2.2-15-6.2c-4-4-6.2-9.3-6.2-15s2.2-11,6.2-15l48.3-48.3
		c-8.7-24.2,2.5-51.4,26.3-62.2c13-5.9,28-5.9,41,0c1.6,0.7,2.8,2.3,3.2,4c0.3,1.8-0.3,3.6-1.5,4.9l-27.7,27.7
		c-0.7,0.7-0.7,1.9,0,2.6l11.7,11.7c0.9,0.8,1.6,0.9,2.5,0l27.7-27.7c1.3-1.3,3.1-1.9,4.9-1.5c1.8,0.3,3.3,1.5,4,3.2
		c5.5,12.1,5.9,25.6,1.2,38c-4.7,12.4-13.9,22.3-26,27.8c-11.8,5.3-25.4,5.8-37.4,1.5l-48.3,48.3C90.6,204.4,85.3,206.6,79.6,206.6z
		 M159.7,66.5c-5.5,0-10.9,1.2-15.9,3.4c-19.4,8.8-28.1,31.8-19.3,51.2c0.9,2.1,0.5,4.6-1.1,6.2l-50.9,50.9c-1.9,1.9-3,4.4-3,7.1
		s1.1,5.2,3,7.1c3.8,3.8,10.5,3.8,14.3,0l50.9-50.9c1.6-1.6,4.1-2.1,6.2-1.1c10.1,4.6,21.8,4.6,31.9,0c9.4-4.3,16.6-11.9,20.2-21.6
		c2.6-7,3.2-14.5,1.7-21.6l-21.4,21.5c-4.9,4.8-13.2,4.8-18.1,0l-11.8-11.8c-4.9-5-4.9-13.1,0-18.1l21.5-21.5
		C165.1,66.8,162.4,66.5,159.7,66.5z"/>
</g>
</svg>
