<?xml version="1.0" encoding="utf-8"?>
<!-- Generator: Adobe Illustrator 18.1.1, SVG Export Plug-In . SVG Version: 6.00 Build 0)  -->
<svg version="1.1" id="Layer_1" xmlns="http://www.w3.org/2000/svg" xmlns:xlink="http://www.w3.org/1999/xlink" x="0px" y="0px"
	 viewBox="0 0 270 345.9" enable-background="new 0 0 270 345.9" xml:space="preserve">
<g>
	<path fill="#4C4C4C" d="M270,135c0,59.3-38.2,109.6-91.4,127.8l-23.9,69.6c-6.3,18.3-32.2,17.9-38-0.5l-21.3-67.8
		C40.2,247.2,0,195.8,0,135C0,60.4,60.4,0,135,0S270,60.4,270,135z"/>
	<g>
		<g>
			<path fill="#FFFFFF" d="M136,138.6H73.1c-3.9,0-7-3.1-7-7c0-3.9,3.1-7,7-7H136c3.9,0,7,3.1,7,7C143,135.5,139.9,138.6,136,138.6z
				"/>
		</g>
		<g>
			<path fill="#FFFFFF" d="M164,96.6H73.1c-3.9,0-7-3.1-7-7s3.1-7,7-7H164c3.9,0,7,3.1,7,7S167.8,96.6,164,96.6z"/>
		</g>
		<g>
			<path fill="#FFFFFF" d="M136,180.5H73.1c-3.9,0-7-3.1-7-7s3.1-7,7-7H136c3.9,0,7,3.1,7,7S139.9,180.5,136,180.5z"/>
		</g>
		<g>
			<path fill="#FFFFFF" d="M164,180.5c-1.2,0-2.4-0.3-3.4-0.9c-2.2-1.2-3.5-3.6-3.5-6.1v-41.9c0-2.5,1.4-4.8,3.5-6.1
				c2.2-1.2,4.9-1.2,7,0.1l34.9,21c2.1,1.3,3.4,3.5,3.4,6c0,2.5-1.3,4.7-3.4,6l-34.9,21C166.4,180.2,165.2,180.5,164,180.5z
				 M170.9,143.9v17.2l14.4-8.6L170.9,143.9z"/>
		</g>
	</g>
</g>
</svg>
