<?xml version="1.0" encoding="utf-8"?>
<!-- Generator: Adobe Illustrator 18.1.1, SVG Export Plug-In . SVG Version: 6.00 Build 0)  -->
<svg version="1.1" id="Layer_1" xmlns="http://www.w3.org/2000/svg" xmlns:xlink="http://www.w3.org/1999/xlink" x="0px" y="0px"
	 viewBox="0 0 634.1 202.1" style="enable-background:new 0 0 634.1 202.1;" xml:space="preserve">
<g>
	<path d="M441.9,110.5v46.3c0,25-20.3,45.3-45.3,45.3c-12.1,0-23-4.9-31-12.8c-7.9-7.9-12.8-18.9-12.8-31v-56.4h11.8
		c6,0,10.9,4.9,10.9,10.9v44.6c0,11.8,8.9,21.9,20.7,22.8c6.8,0.5,12.9-2,17.3-6.3c4-4,6.4-9.4,6.4-15.5v-45.4
		c0-12.2-9.8-22.1-22-22c-12.5,0-23.7-5-31.9-13.2c-8.1-8.1-13.2-19.4-13.2-31.8v-0.3c0-24.4,19.6-44.5,44-44.5
		c12.5,0,23.7,5,31.9,13.2c8.1,8.1,13.2,19.4,13.2,31.8c0,3.1-1.3,6-3.3,8c-2.1,2.1-4.9,3.3-8,3.3h-15.7l2.5-6.3
		c2.6-6.5,1.6-14-2.9-19.4c-4-4.8-10.1-7.9-16.8-7.9h-0.1c-12.1,0-21.9,9.8-21.9,21.9v1.1c0,4.7,1.5,9.1,4.2,12.6
		c0.5,0.7,1,1.3,1.5,1.9L398.5,82l10.9-12.8C428.1,73.7,441.9,90.5,441.9,110.5z"/>
	<circle cx="397.4" cy="46.1" r="11.3"/>
	<path d="M386.1,101.9h11.7c6,0,10.8,4.9,10.8,10.8V157c0,6.1-5,11.1-11.1,11.1h0c-6.3,0-11.5-5.1-11.5-11.5V101.9z"/>
	<path d="M13.9,25.9c-3.8,0-7.1-1.3-9.8-3.8C1.4,19.6,0,16.6,0,13c0-3.6,1.4-6.7,4.1-9.2C6.8,1.3,10,0,13.8,0c3.9,0,7.2,1.3,9.9,3.8
		c2.7,2.5,4,5.6,4,9.2c0,3.6-1.3,6.7-4,9.2C21,24.7,17.7,25.9,13.9,25.9z M1.4,130.2V37.9h24.9v92.3H1.4z"/>
	<path d="M65.8,77.2v53H40.9V37.9h23.7L65,61.1h-2.1c2.5-7.8,6.3-13.8,11.3-18.1c5-4.3,11.5-6.4,19.4-6.4c6.4,0,12,1.4,16.8,4.2
		c4.8,2.8,8.5,6.8,11.1,12c2.6,5.2,3.9,11.5,3.9,18.9v58.5h-24.9V76.1c0-5.9-1.5-10.4-4.4-13.7c-3-3.3-7.1-4.9-12.4-4.9
		c-3.5,0-6.6,0.8-9.3,2.3c-2.7,1.5-4.8,3.7-6.4,6.6C66.6,69.4,65.8,72.9,65.8,77.2z"/>
	<path d="M191.9,37.9V57h-60.5V37.9H191.9z M147.8,130.2V29.8c0-6.4,1.3-11.7,3.8-16c2.5-4.2,6.1-7.4,10.6-9.5
		c4.5-2.1,9.7-3.2,15.5-3.2c3.7,0,7.2,0.2,10.3,0.7c3.1,0.5,5.4,0.9,6.8,1.3l-3.5,19c-0.9-0.2-2.2-0.4-3.7-0.7
		c-1.5-0.2-3.1-0.3-4.6-0.3c-3.7,0-6.4,0.9-7.9,2.6c-1.6,1.7-2.3,4.3-2.3,7.6v98.9H147.8z"/>
	<path d="M201.2,130.2V37.9h24.2v16h0.8c1.7-5.6,4.5-9.9,8.4-12.7c3.9-2.9,8.5-4.3,13.9-4.3c1.3,0,2.7,0.1,4.2,0.2
		c1.4,0.1,2.7,0.3,3.8,0.5v22.1c-1.1-0.3-2.6-0.6-4.7-0.8c-2.1-0.2-4.1-0.3-6.1-0.3c-3.7,0-7,0.8-10,2.4c-3,1.6-5.3,3.9-7,6.9
		c-1.7,3-2.5,6.4-2.5,10.5v52H201.2z"/>
	<path d="M287.9,131.9c-5.9,0-11.2-1-15.9-3.1s-8.4-5.1-11-9.2c-2.7-4.1-4-9.2-4-15.3c0-5.2,0.9-9.5,2.8-13c1.9-3.5,4.5-6.2,7.8-8.4
		c3.3-2.1,7-3.7,11.2-4.8c4.2-1.1,8.6-1.9,13.3-2.3c5.4-0.6,9.8-1.1,13-1.5c3.3-0.5,5.7-1.2,7.2-2.2s2.3-2.5,2.3-4.5v-0.4
		c0-2.6-0.6-4.8-1.7-6.6c-1.1-1.8-2.8-3.2-5-4.2c-2.2-1-4.8-1.5-7.9-1.5c-3.2,0-6,0.5-8.3,1.5c-2.4,1-4.3,2.3-5.8,3.9
		c-1.5,1.6-2.5,3.5-3.1,5.6l-23-2.9c1.3-5.6,3.7-10.3,7.4-14.3c3.6-4,8.2-7,13.9-9.1c5.6-2.1,12-3.1,19.2-3.1
		c5.2,0,10.2,0.6,14.9,1.8c4.7,1.2,8.9,3.1,12.6,5.7c3.7,2.6,6.6,5.8,8.7,9.7c2.1,3.9,3.1,8.6,3.1,14.1v62.3h-23.8v-12.9h-0.8
		c-1.5,2.9-3.5,5.4-6,7.6c-2.5,2.2-5.4,3.9-8.9,5.1C296.5,131.3,292.5,131.9,287.9,131.9z M294.9,114.5c4,0,7.4-0.8,10.4-2.3
		c3-1.6,5.3-3.6,6.9-6.3c1.7-2.6,2.5-5.6,2.5-8.9v-9.8c-0.7,0.4-1.8,0.9-3.2,1.3c-1.4,0.4-3,0.8-4.8,1.2c-1.8,0.3-3.6,0.6-5.4,0.9
		c-1.8,0.3-3.5,0.5-5,0.8c-3,0.4-5.7,1.2-8,2.1c-2.3,1-4.2,2.3-5.4,3.9c-1.3,1.6-1.9,3.7-1.9,6.1c0,2.3,0.6,4.3,1.8,5.9
		c1.2,1.6,2.8,2.8,4.9,3.7S292.2,114.5,294.9,114.5z"/>
	<path d="M496.9,132c-9.4,0-17.5-2-24.4-5.9c-6.8-3.9-12.1-9.4-15.8-16.6c-3.7-7.1-5.6-15.5-5.6-25.2c0-9.5,1.8-17.9,5.5-25
		c3.7-7.2,8.9-12.8,15.6-16.8c6.7-4,14.5-6.1,23.5-6.1c6.2,0,11.9,1,17.2,3c5.3,2,9.9,5,13.9,8.9c4,3.9,7.1,8.8,9.3,14.7
		c2.2,5.9,3.3,12.7,3.3,20.4v6.9h-78.3V74.7h66.2l-11.6,4.1c0-4.8-0.8-8.9-2.3-12.5s-3.7-6.2-6.6-8.2s-6.5-2.9-10.8-2.9
		c-4.3,0-7.9,1-11,2.9c-3,2-5.3,4.6-6.9,8c-1.6,3.4-2.4,7.3-2.4,11.7v11c0,5.2,0.9,9.6,2.7,13.2c1.8,3.6,4.3,6.4,7.6,8.2
		c3.3,1.9,7.1,2.8,11.4,2.8c3,0,5.6-0.4,8.1-1.3c2.4-0.9,4.5-2.1,6.2-3.8c1.7-1.6,3-3.7,3.9-6.1l22.7,3.3c-1.5,5.4-4.1,10-7.8,14
		c-3.8,4-8.5,7.1-14.1,9.3C510.6,130.9,504.1,132,496.9,132z"/>
	<path d="M591.6,132c-9.4,0-17.5-2-24.4-5.9c-6.8-3.9-12.1-9.4-15.8-16.6c-3.7-7.1-5.6-15.5-5.6-25.2c0-9.5,1.8-17.9,5.5-25
		c3.7-7.2,8.9-12.8,15.6-16.8c6.7-4,14.5-6.1,23.5-6.1c6.2,0,11.9,1,17.2,3c5.3,2,9.9,5,13.9,8.9c4,3.9,7.1,8.8,9.3,14.7
		c2.2,5.9,3.3,12.7,3.3,20.4v6.9h-78.3V74.7H622l-11.6,4.1c0-4.8-0.8-8.9-2.3-12.5s-3.7-6.2-6.6-8.2s-6.5-2.9-10.8-2.9
		c-4.3,0-7.9,1-11,2.9c-3,2-5.3,4.6-6.9,8c-1.6,3.4-2.4,7.3-2.4,11.7v11c0,5.2,0.9,9.6,2.7,13.2c1.8,3.6,4.3,6.4,7.6,8.2
		c3.3,1.9,7.1,2.8,11.4,2.8c3,0,5.6-0.4,8.1-1.3c2.4-0.9,4.5-2.1,6.2-3.8c1.7-1.6,3-3.7,3.9-6.1l22.7,3.3c-1.5,5.4-4.1,10-7.8,14
		c-3.8,4-8.5,7.1-14.1,9.3C605.3,130.9,598.8,132,591.6,132z"/>
</g>
</svg>
