<?xml version="1.0" encoding="utf-8"?>
<!-- Generator: Adobe Illustrator 18.1.1, SVG Export Plug-In . SVG Version: 6.00 Build 0)  -->
<svg version="1.1" id="Layer_1" xmlns="http://www.w3.org/2000/svg" xmlns:xlink="http://www.w3.org/1999/xlink" x="0px" y="0px"
	 viewBox="0 0 271 271" style="enable-background:new 0 0 271 271;" xml:space="preserve">
<style type="text/css">
	.st0{fill:#FFFFFF;}
	.st1{fill:#231F20;}
</style>
<g>
	<path class="st0" d="M213,271H58c-32,0-58-26-58-58V58C0,26,26,0,58,0h155c32,0,58,26,58,58v155C271,245,245,271,213,271z"/>
	<g>
		<path class="st1" d="M186.1,145.7v52.6c0,28.4-23,51.4-51.4,51.4c-13.7,0-26.2-5.6-35.2-14.6c-9-9-14.6-21.4-14.6-35.2v-64.1h13.4
			c6.8,0,12.4,5.6,12.4,12.4V199c0,13.4,10.1,24.8,23.5,25.9c7.7,0.6,14.7-2.3,19.6-7.2c4.5-4.5,7.3-10.7,7.3-17.6v-51.6
			c0-13.8-11.2-25.1-25-25c-14.2,0-27-5.7-36.2-15c-9.3-9.3-15-22.1-15-36.2v-0.4c0-27.7,22.2-50.6,49.9-50.6c14.2,0,27,5.7,36.3,15
			c9.3,9.3,15,22.1,15,36.2c0,3.6-1.4,6.8-3.8,9.1c-2.3,2.3-5.6,3.8-9.1,3.8h-17.9l2.9-7.1c3-7.4,1.8-15.9-3.3-22
			c-4.6-5.5-11.4-9-19.1-9h-0.2c-13.7,0-24.9,11.1-24.9,24.9v1.2c0,5.4,1.8,10.3,4.7,14.3c0.5,0.7,1.1,1.4,1.8,2.1l19.5,23.5
			l12.4-14.5C170.3,103.9,186.1,123,186.1,145.7z"/>
		<circle class="st1" cx="135.5" cy="72.5" r="12.8"/>
		<path class="st1" d="M122.7,135.9H136c6.8,0,12.3,5.5,12.3,12.3v50.3c0,6.9-5.6,12.6-12.6,12.6h0c-7.2,0-13.1-5.8-13.1-13.1V135.9
			z"/>
	</g>
</g>
</svg>
